<svg xmlns="http://www.w3.org/2000/svg" xmlns:xlink="http://www.w3.org/1999/xlink" width="500" zoomAndPan="magnify" viewBox="0 0 375 374.999991" height="120" preserveAspectRatio="xMidYMid meet" version="1.0"><defs><clipPath id="ca59e05c18"><path d="M 120 105.558594 L 143 105.558594 L 143 134 L 120 134 Z M 120 105.558594 " clip-rule="nonzero"/></clipPath><clipPath id="1d058b17eb"><path d="M 98.433594 160 L 117 160 L 117 186 L 98.433594 186 Z M 98.433594 160 " clip-rule="nonzero"/></clipPath><clipPath id="c7412e6cbf"><path d="M 113 113 L 195 113 L 195 269.773438 L 113 269.773438 Z M 113 113 " clip-rule="nonzero"/></clipPath><clipPath id="dffbfaca44"><path d="M 232 105.558594 L 255 105.558594 L 255 134 L 232 134 Z M 232 105.558594 " clip-rule="nonzero"/></clipPath><clipPath id="fa9dbf510b"><path d="M 258 160 L 276.507812 160 L 276.507812 186 L 258 186 Z M 258 160 " clip-rule="nonzero"/></clipPath><clipPath id="4fba1bade3"><path d="M 180 113 L 262 113 L 262 269.773438 L 180 269.773438 Z M 180 113 " clip-rule="nonzero"/></clipPath><clipPath id="0785770932"><path d="M 147.171875 105.664062 L 228.210938 105.664062 L 228.210938 217.417969 L 147.171875 217.417969 Z M 147.171875 105.664062 " clip-rule="nonzero"/></clipPath></defs><g clip-path="url(#ca59e05c18)"><path fill="#16d5ff" d="M 133.371094 125.191406 C 128.875 132.339844 125.855469 134.046875 123.078125 132.835938 C 120.492188 131.683594 119.265625 127.679688 124.40625 119.488281 C 129.59375 111.054688 142.636719 105.648438 142.597656 105.863281 C 142.335938 105.953125 137.570312 118.15625 133.371094 125.191406 Z M 133.371094 125.191406 " fill-opacity="1" fill-rule="nonzero"/></g><path fill="#16d5ff" d="M 126.988281 154.378906 C 121.980469 158.273438 115.746094 156.757812 115.726562 156.671875 C 115.507812 156.738281 117.570312 144.691406 123.648438 141.183594 C 129.480469 137.675781 137.730469 141.09375 137.710938 141.027344 C 137.511719 140.964844 131.765625 150.394531 126.988281 154.378906 Z M 126.988281 154.378906 " fill-opacity="1" fill-rule="nonzero"/><path fill="#16d5ff" d="M 106.492188 150.273438 C 109.582031 156.957031 116.328125 156.679688 116.269531 156.757812 C 116.105469 156.671875 118.433594 145.441406 116.664062 138.691406 C 114.679688 131.894531 107.144531 127.609375 107.078125 127.652344 C 106.742188 127.59375 103.007812 143.566406 106.492188 150.273438 Z M 106.492188 150.273438 " fill-opacity="1" fill-rule="nonzero"/><path fill="#16d5ff" d="M 126.214844 179.078125 C 122.6875 184.265625 116.304688 184.789062 116.261719 184.71875 C 116.085938 184.824219 114.269531 172.96875 118.84375 167.917969 C 123.199219 162.914062 132.082031 163.539062 132.046875 163.480469 C 131.859375 163.453125 129.523438 173.855469 126.214844 179.078125 Z M 126.214844 179.078125 " fill-opacity="1" fill-rule="nonzero"/><g clip-path="url(#1d058b17eb)"><path fill="#16d5ff" d="M 105.519531 181.605469 C 110.535156 186.871094 116.828125 184.535156 116.808594 184.617188 C 116.636719 184.578125 115.328125 173.386719 111.441406 167.753906 C 107.347656 162.136719 98.816406 160.535156 98.773438 160.585938 C 98.460938 160.605469 100.152344 176.398438 105.519531 181.605469 Z M 105.519531 181.605469 " fill-opacity="1" fill-rule="nonzero"/></g><path fill="#16d5ff" d="M 133.03125 202.585938 C 131.25 208.617188 125.355469 211.117188 125.289062 211.054688 C 125.15625 211.203125 119.867188 200.484375 122.667969 194.296875 C 125.277344 188.226562 133.878906 186.050781 133.835938 186.007812 C 133.660156 186.035156 134.609375 196.570312 133.03125 202.585938 Z M 133.03125 202.585938 " fill-opacity="1" fill-rule="nonzero"/><path fill="#16d5ff" d="M 114.164062 211.4375 C 120.511719 214.886719 125.769531 210.707031 125.769531 210.792969 C 125.59375 210.800781 120.992188 200.546875 115.589844 196.457031 C 110 192.433594 101.410156 193.597656 101.390625 193.652344 C 101.121094 193.753906 107.523438 208.128906 114.164062 211.4375 Z M 114.164062 211.4375 " fill-opacity="1" fill-rule="nonzero"/><path fill="#16d5ff" d="M 146.652344 222.957031 C 146.835938 229.292969 142 233.515625 141.925781 233.472656 C 141.832031 233.65625 133.476562 225.015625 134.269531 218.226562 C 134.898438 211.601562 142.410156 206.851562 142.355469 206.832031 C 142.1875 206.902344 146.273438 216.703125 146.652344 222.957031 Z M 146.652344 222.957031 " fill-opacity="1" fill-rule="nonzero"/><path fill="#16d5ff" d="M 131.449219 237.285156 C 138.558594 238.632812 142.277344 232.992188 142.304688 233.078125 C 142.128906 233.140625 134.566406 224.730469 128.21875 222.492188 C 121.683594 220.371094 113.894531 224.15625 113.894531 224.214844 C 113.652344 224.382812 124.082031 236.167969 131.449219 237.285156 Z M 131.449219 237.285156 " fill-opacity="1" fill-rule="nonzero"/><path fill="#16d5ff" d="M 166.277344 238.226562 C 168.597656 244.214844 165.34375 249.75 165.246094 249.742188 C 165.1875 249.960938 154.167969 244.320312 152.777344 237.570312 C 151.25 231.03125 156.933594 224.148438 156.863281 224.140625 C 156.714844 224.269531 163.773438 232.382812 166.277344 238.226562 Z M 166.277344 238.226562 " fill-opacity="1" fill-rule="nonzero"/><path fill="#16d5ff" d="M 156.351562 256.664062 C 163.71875 255.714844 165.4375 249.167969 165.484375 249.246094 C 165.308594 249.375 155.128906 243.710938 148.351562 243.535156 C 141.40625 243.535156 135.179688 249.566406 135.195312 249.628906 C 134.996094 249.863281 148.773438 257.914062 156.351562 256.664062 Z M 156.351562 256.664062 " fill-opacity="1" fill-rule="nonzero"/><g clip-path="url(#c7412e6cbf)"><path fill="#16d5ff" d="M 135.328125 113.613281 C 130.445312 120.230469 126.394531 127.386719 123.445312 134.960938 C 120.484375 142.523438 118.546875 150.445312 117.699219 158.464844 C 117.273438 162.476562 117.132812 166.507812 117.238281 170.53125 C 117.359375 174.550781 117.726562 178.558594 118.375 182.527344 C 119.027344 186.488281 119.910156 190.414062 121.078125 194.25 C 122.230469 198.089844 123.636719 201.851562 125.296875 205.5 C 131.929688 220.097656 142.460938 232.933594 155.703125 242.089844 C 156.527344 242.664062 157.371094 243.214844 158.210938 243.761719 C 158.628906 244.023438 159.066406 244.316406 159.476562 244.546875 L 160.097656 244.917969 C 160.3125 245.039062 160.523438 245.144531 160.734375 245.257812 C 161.582031 245.71875 162.480469 246.113281 163.386719 246.496094 C 164.304688 246.859375 165.230469 247.21875 166.1875 247.53125 C 168.085938 248.183594 170.050781 248.742188 172.023438 249.375 C 173.996094 250.011719 175.992188 250.691406 177.914062 251.570312 C 178.875 252.003906 179.816406 252.484375 180.734375 252.996094 C 181.652344 253.511719 182.558594 254.058594 183.421875 254.660156 C 184.289062 255.261719 185.132812 255.898438 185.929688 256.585938 C 186.730469 257.273438 187.484375 258.019531 188.183594 258.796875 C 188.890625 259.585938 189.527344 260.421875 190.121094 261.285156 C 190.710938 262.15625 191.230469 263.0625 191.707031 263.984375 C 192.640625 265.839844 193.410156 267.753906 194.144531 269.675781 C 193.175781 267.859375 192.242188 266.023438 191.132812 264.308594 C 190.589844 263.453125 190.007812 262.617188 189.371094 261.835938 C 188.738281 261.058594 188.058594 260.320312 187.324219 259.640625 C 184.394531 256.898438 180.832031 254.929688 177.09375 253.539062 C 173.359375 252.125 169.375 251.394531 165.335938 250.257812 C 164.328125 249.984375 163.316406 249.65625 162.3125 249.308594 C 161.308594 248.941406 160.304688 248.550781 159.328125 248.078125 C 159.082031 247.957031 158.832031 247.851562 158.59375 247.722656 L 157.871094 247.339844 C 157.378906 247.085938 156.945312 246.824219 156.488281 246.5625 C 155.582031 246.035156 154.691406 245.484375 153.808594 244.925781 C 150.273438 242.679688 146.902344 240.167969 143.742188 237.40625 C 142.941406 236.726562 142.171875 236.011719 141.394531 235.300781 C 140.628906 234.578125 139.875 233.855469 139.140625 233.105469 C 137.660156 231.609375 136.226562 230.078125 134.863281 228.480469 C 132.121094 225.296875 129.625 221.894531 127.347656 218.359375 C 126.222656 216.582031 125.15625 214.769531 124.152344 212.917969 L 122.6875 210.121094 L 121.332031 207.269531 C 119.605469 203.429688 118.136719 199.476562 116.957031 195.4375 C 115.789062 191.390625 114.882812 187.277344 114.296875 183.109375 C 113.710938 178.941406 113.398438 174.75 113.40625 170.546875 C 113.398438 166.34375 113.710938 162.148438 114.304688 158.003906 C 115.519531 149.714844 117.929688 141.617188 121.480469 134.085938 C 125.0625 126.601562 129.703125 119.617188 135.328125 113.613281 Z M 135.328125 113.613281 " fill-opacity="1" fill-rule="nonzero"/></g><g clip-path="url(#dffbfaca44)"><path fill="#16d5ff" d="M 241.644531 125.191406 C 246.140625 132.339844 249.15625 134.046875 251.9375 132.835938 C 254.523438 131.683594 255.746094 127.679688 250.605469 119.488281 C 245.417969 111.054688 232.375 105.648438 232.417969 105.863281 C 232.679688 105.953125 237.445312 118.15625 241.644531 125.191406 Z M 241.644531 125.191406 " fill-opacity="1" fill-rule="nonzero"/></g><path fill="#16d5ff" d="M 248.027344 154.378906 C 253.03125 158.273438 259.265625 156.757812 259.289062 156.671875 C 259.507812 156.738281 257.441406 144.691406 251.363281 141.183594 C 245.53125 137.675781 237.28125 141.09375 237.300781 141.027344 C 237.5 140.964844 243.246094 150.394531 248.027344 154.378906 Z M 248.027344 154.378906 " fill-opacity="1" fill-rule="nonzero"/><path fill="#16d5ff" d="M 268.519531 150.273438 C 265.429688 156.957031 258.6875 156.679688 258.742188 156.757812 C 258.90625 156.671875 256.582031 145.441406 258.347656 138.691406 C 260.332031 131.894531 267.871094 127.609375 267.933594 127.652344 C 268.273438 127.59375 272.003906 143.566406 268.519531 150.273438 Z M 268.519531 150.273438 " fill-opacity="1" fill-rule="nonzero"/><path fill="#16d5ff" d="M 248.796875 179.078125 C 252.324219 184.265625 258.707031 184.789062 258.75 184.71875 C 258.925781 184.824219 260.742188 172.96875 256.171875 167.917969 C 251.816406 162.914062 242.929688 163.539062 242.964844 163.480469 C 243.15625 163.453125 245.488281 173.855469 248.796875 179.078125 Z M 248.796875 179.078125 " fill-opacity="1" fill-rule="nonzero"/><g clip-path="url(#fa9dbf510b)"><path fill="#16d5ff" d="M 269.496094 181.605469 C 264.476562 186.871094 258.183594 184.535156 258.207031 184.617188 C 258.375 184.578125 259.683594 173.386719 263.570312 167.753906 C 267.664062 162.136719 276.199219 160.535156 276.238281 160.585938 C 276.550781 160.605469 274.859375 176.398438 269.496094 181.605469 Z M 269.496094 181.605469 " fill-opacity="1" fill-rule="nonzero"/></g><path fill="#16d5ff" d="M 241.980469 202.585938 C 243.761719 208.617188 249.660156 211.117188 249.722656 211.054688 C 249.855469 211.203125 255.144531 200.484375 252.347656 194.296875 C 249.738281 188.226562 241.132812 186.050781 241.175781 186.007812 C 241.351562 186.035156 240.40625 196.570312 241.980469 202.585938 Z M 241.980469 202.585938 " fill-opacity="1" fill-rule="nonzero"/><path fill="#16d5ff" d="M 260.851562 211.4375 C 254.5 214.886719 249.242188 210.707031 249.242188 210.792969 C 249.417969 210.800781 254.019531 200.546875 259.421875 196.457031 C 265.015625 192.433594 273.601562 193.597656 273.625 193.652344 C 273.894531 193.753906 267.488281 208.128906 260.851562 211.4375 Z M 260.851562 211.4375 " fill-opacity="1" fill-rule="nonzero"/><path fill="#16d5ff" d="M 228.359375 222.957031 C 228.175781 229.292969 233.011719 233.515625 233.089844 233.472656 C 233.179688 233.65625 241.535156 225.015625 240.746094 218.226562 C 240.117188 211.601562 232.601562 206.851562 232.65625 206.832031 C 232.828125 206.902344 228.742188 216.703125 228.359375 222.957031 Z M 228.359375 222.957031 " fill-opacity="1" fill-rule="nonzero"/><path fill="#16d5ff" d="M 243.566406 237.285156 C 236.453125 238.632812 232.734375 232.992188 232.707031 233.078125 C 232.882812 233.140625 240.449219 224.730469 246.796875 222.492188 C 253.328125 220.371094 261.117188 224.15625 261.117188 224.214844 C 261.359375 224.382812 250.933594 236.167969 243.566406 237.285156 Z M 243.566406 237.285156 " fill-opacity="1" fill-rule="nonzero"/><path fill="#16d5ff" d="M 208.734375 238.226562 C 206.417969 244.214844 209.667969 249.75 209.769531 249.742188 C 209.824219 249.960938 220.84375 244.320312 222.238281 237.570312 C 223.765625 231.03125 218.082031 224.148438 218.152344 224.140625 C 218.300781 224.269531 211.238281 232.382812 208.734375 238.226562 Z M 208.734375 238.226562 " fill-opacity="1" fill-rule="nonzero"/><path fill="#16d5ff" d="M 218.660156 256.664062 C 211.292969 255.714844 209.578125 249.167969 209.527344 249.246094 C 209.703125 249.375 219.882812 243.710938 226.664062 243.535156 C 233.605469 243.535156 239.832031 249.566406 239.820312 249.628906 C 240.015625 249.863281 226.238281 257.914062 218.660156 256.664062 Z M 218.660156 256.664062 " fill-opacity="1" fill-rule="nonzero"/><g clip-path="url(#4fba1bade3)"><path fill="#16d5ff" d="M 239.683594 113.613281 C 244.570312 120.230469 248.621094 127.386719 251.566406 134.960938 C 254.53125 142.523438 256.46875 150.445312 257.316406 158.464844 C 257.738281 162.476562 257.882812 166.507812 257.773438 170.53125 C 257.65625 174.550781 257.285156 178.558594 256.636719 182.527344 C 255.988281 186.488281 255.101562 190.414062 253.9375 194.25 C 252.785156 198.089844 251.378906 201.851562 249.714844 205.5 C 243.085938 220.097656 232.550781 232.933594 219.3125 242.089844 C 218.484375 242.664062 217.644531 243.214844 216.800781 243.761719 C 216.382812 244.023438 215.945312 244.316406 215.535156 244.546875 L 214.914062 244.917969 C 214.703125 245.039062 214.488281 245.144531 214.277344 245.257812 C 213.429688 245.71875 212.53125 246.113281 211.625 246.496094 C 210.707031 246.859375 209.78125 247.21875 208.828125 247.53125 C 206.925781 248.183594 204.960938 248.742188 202.988281 249.375 C 201.015625 250.011719 199.023438 250.691406 197.097656 251.570312 C 196.136719 252.003906 195.199219 252.484375 194.277344 252.996094 C 193.359375 253.511719 192.457031 254.058594 191.59375 254.660156 C 190.722656 255.261719 189.882812 255.898438 189.082031 256.585938 C 188.285156 257.273438 187.527344 258.019531 186.828125 258.796875 C 186.121094 259.585938 185.484375 260.421875 184.890625 261.285156 C 184.304688 262.15625 183.78125 263.0625 183.308594 263.984375 C 182.375 265.839844 181.605469 267.753906 180.867188 269.675781 C 181.835938 267.859375 182.769531 266.023438 183.878906 264.308594 C 184.425781 263.453125 185.003906 262.617188 185.640625 261.835938 C 186.277344 261.058594 186.957031 260.320312 187.691406 259.640625 C 190.617188 256.898438 194.179688 254.929688 197.917969 253.539062 C 201.652344 252.125 205.640625 251.394531 209.675781 250.257812 C 210.6875 249.984375 211.699219 249.65625 212.703125 249.308594 C 213.707031 248.941406 214.710938 248.550781 215.683594 248.078125 C 215.933594 247.957031 216.179688 247.851562 216.417969 247.722656 L 217.140625 247.339844 C 217.636719 247.085938 218.066406 246.824219 218.527344 246.5625 C 219.429688 246.035156 220.320312 245.484375 221.207031 244.925781 C 224.742188 242.679688 228.113281 240.167969 231.273438 237.40625 C 232.070312 236.726562 232.839844 236.011719 233.621094 235.300781 C 234.382812 234.578125 235.140625 233.855469 235.875 233.105469 C 237.351562 231.609375 238.785156 230.078125 240.152344 228.480469 C 242.894531 225.296875 245.390625 221.894531 247.664062 218.359375 C 248.789062 216.582031 249.855469 214.769531 250.859375 212.917969 L 252.324219 210.121094 L 253.683594 207.269531 C 255.40625 203.429688 256.878906 199.476562 258.058594 195.4375 C 259.222656 191.390625 260.128906 187.277344 260.714844 183.109375 C 261.300781 178.941406 261.613281 174.75 261.605469 170.546875 C 261.613281 166.34375 261.300781 162.148438 260.707031 158.003906 C 259.492188 149.714844 257.082031 141.617188 253.535156 134.085938 C 249.949219 126.601562 245.3125 119.617188 239.683594 113.613281 Z M 239.683594 113.613281 " fill-opacity="1" fill-rule="nonzero"/></g><g clip-path="url(#0785770932)"><path fill="#16d5ff" d="M 206.921875 180.078125 C 206.492188 181.105469 205.945312 182.003906 205.269531 182.765625 C 204.59375 183.523438 203.707031 184.199219 202.609375 184.777344 C 201.507812 185.359375 200.4375 185.832031 199.40625 186.1875 C 198.375 186.546875 197.125 186.859375 195.667969 187.128906 C 194.203125 187.398438 192.925781 187.585938 191.824219 187.699219 C 190.722656 187.8125 189.410156 187.902344 187.878906 187.96875 C 186.351562 188.035156 185.160156 188.070312 184.308594 188.070312 C 183.453125 188.070312 182.375 188.058594 181.074219 188.035156 C 179.769531 188.015625 178.9375 188.003906 178.578125 188.003906 L 178.578125 165.300781 C 178.9375 165.300781 180.003906 165.28125 181.78125 165.234375 C 183.554688 165.1875 185.003906 165.167969 186.128906 165.167969 C 187.25 165.167969 188.800781 165.234375 190.78125 165.371094 C 192.753906 165.503906 194.417969 165.703125 195.765625 165.972656 C 197.113281 166.242188 198.585938 166.65625 200.179688 167.214844 C 201.777344 167.773438 203.066406 168.457031 204.058594 169.261719 C 205.046875 170.070312 205.875 171.097656 206.550781 172.351562 C 207.226562 173.605469 207.5625 175.039062 207.5625 176.652344 C 207.5625 177.90625 207.347656 179.046875 206.921875 180.078125 Z M 178.578125 134.339844 C 178.894531 134.339844 179.78125 134.328125 181.242188 134.308594 C 182.703125 134.285156 183.914062 134.261719 184.882812 134.238281 C 185.847656 134.21875 187.152344 134.273438 188.792969 134.40625 C 190.429688 134.542969 191.8125 134.722656 192.9375 134.945312 C 194.058594 135.167969 195.296875 135.539062 196.640625 136.050781 C 197.992188 136.566406 199.070312 137.195312 199.878906 137.933594 C 200.6875 138.671875 201.371094 139.613281 201.933594 140.753906 C 202.496094 141.894531 202.773438 143.203125 202.773438 144.683594 C 202.773438 145.9375 202.574219 147.078125 202.167969 148.109375 C 201.765625 149.136719 201.15625 150 200.351562 150.695312 C 199.542969 151.386719 198.710938 151.992188 197.855469 152.507812 C 197.003906 153.023438 195.914062 153.4375 194.585938 153.75 C 193.261719 154.0625 192.105469 154.308594 191.117188 154.488281 C 190.128906 154.667969 188.894531 154.792969 187.410156 154.859375 C 185.925781 154.925781 184.804688 154.96875 184.039062 154.992188 C 183.273438 155.015625 182.230469 155.015625 180.90625 154.992188 C 179.578125 154.96875 178.804688 154.960938 178.578125 154.960938 Z M 225.019531 164.292969 C 222.414062 160.9375 218.480469 158.628906 213.222656 157.378906 C 219.917969 153.972656 222.859375 148.199219 222.050781 140.046875 C 221.78125 137.09375 220.964844 134.53125 219.59375 132.359375 C 218.21875 130.191406 216.371094 128.445312 214.03125 127.125 C 211.695312 125.800781 209.152344 124.792969 206.414062 124.101562 C 203.675781 123.40625 200.527344 122.902344 196.976562 122.589844 L 196.976562 105.664062 L 186.597656 105.664062 L 186.597656 122.121094 C 184.800781 122.121094 182.0625 122.164062 178.378906 122.253906 L 178.378906 105.664062 L 167.996094 105.664062 L 167.996094 122.589844 C 166.511719 122.632812 164.335938 122.65625 161.460938 122.65625 L 147.171875 122.589844 L 147.171875 133.605469 L 154.652344 133.605469 C 158.066406 133.605469 160.066406 135.128906 160.652344 138.171875 L 160.652344 157.445312 C 161.101562 157.445312 161.460938 157.46875 161.730469 157.515625 L 160.652344 157.515625 L 160.652344 184.511719 C 160.292969 186.796875 158.988281 187.9375 156.742188 187.9375 L 149.261719 187.9375 L 147.171875 200.226562 L 160.652344 200.226562 C 161.503906 200.226562 162.742188 200.238281 164.359375 200.257812 C 165.976562 200.28125 167.1875 200.292969 167.996094 200.292969 L 167.996094 217.417969 L 178.378906 217.417969 L 178.378906 200.496094 C 180.265625 200.539062 183.007812 200.5625 186.601562 200.5625 L 186.601562 217.417969 L 196.980469 217.417969 L 196.980469 200.292969 C 200.664062 200.113281 203.933594 199.78125 206.785156 199.285156 C 209.640625 198.792969 212.371094 198.019531 214.976562 196.96875 C 217.582031 195.917969 219.757812 194.605469 221.511719 193.039062 C 223.265625 191.472656 224.710938 189.480469 225.859375 187.0625 C 227.003906 184.644531 227.734375 181.847656 228.046875 178.664062 C 228.636719 172.441406 227.625 167.652344 225.019531 164.292969 " fill-opacity="1" fill-rule="nonzero"/></g></svg>